<svg xmlns="http://www.w3.org/2000/svg">
  <symbol id="preloader" width="100" height="100" viewBox="0 0 100 100" fill="none" xmlns="http://www.w3.org/2000/svg">
    <path
      d="M14.0002 50.0005C14.0002 69.8825 30.1182 86.0005 50.0002 86.0005C69.8822 86.0005 86.0002 69.8825 86.0002 50.0005C86.0002 30.1185 69.8823 14.0005 50.0003 14.0005C45.3513 14.0005 40.9082 14.8815 36.8282 16.4865"
      stroke-width="8" stroke-miterlimit="10" stroke-linecap="round" />
  </symbol>

  <symbol id="search" width="24px" height="24px" viewBox="0 0 24 24" xmlns="http://www.w3.org/2000/svg">
    <path fill="#b652d1" d="M11 2c4.968 0 9 4.032 9 9s-4.032 9-9 9-9-4.032-9-9 4.032-9 9-9zm0 16c3.867 0 7-3.133 7-7 0-3.868-3.133-7-7-7-3.868 0-7 3.132-7 7 0 3.867 3.132 7 7 7zm8.485.071l2.829 2.828-1.415 1.415-2.828-2.829 1.414-1.414z"/>
  </symbol>
</svg>